<svg xmlns="http://www.w3.org/2000/svg" viewBox="0 22.5 293.69000244140625 41.599998474121094" data-asc="0.89">
<!-- font: https://text-to-svg.com/windsong-font-to-svg; mk: https://text-to-svg.com/windsong-font-to-svg -->
<g fill="#4466bb"><g fill="#4466bb" transform="translate(0, 0)">
<path d="M15.35 45.25Q13.25 45.40 12.43 44.42Q11.60 43.45 11.60 42Q11.60 40.55 12.20 38.88Q12.80 37.20 13.60 35.95Q13.50 36 12.75 36.80Q12 37.60 10.85 38.75Q9.70 39.90 8.38 41.05Q7.05 42.20 5.72 43.05Q4.40 43.90 3.40 44.05Q3.25 44.10 2.95 44.10Q2.30 44.10 1.72 43.77Q1.15 43.45 0.75 42.95Q0.35 42.55 0.17 42Q0 41.45 0 40.90Q0 39.50 0.90 37.92Q1.80 36.35 3.18 34.85Q4.55 33.35 6.13 32.17Q7.70 31 9.05 30.40Q10.20 29.95 11.35 29.95Q12.95 29.95 14.20 30.80Q14.70 31.15 15 31.57Q15.30 32 15.35 32.60L15.35 32.65Q15.35 33.25 14.95 33.25Q14.70 33.25 14.55 32.90Q14.30 32.30 13.80 31.67Q13.30 31.05 12.15 31.05Q10.60 31.05 8.82 32.10Q7.05 33.15 5.43 34.75Q3.80 36.35 2.70 38.08Q1.60 39.80 1.40 41.15Q1.35 41.35 1.35 41.55Q1.35 41.75 1.35 41.95Q1.35 43.30 2.30 43.30Q2.75 43.30 3.32 43.08Q3.90 42.85 4.40 42.50Q7.25 40.75 9.95 38.48Q12.65 36.20 15 33.70Q17.65 30.90 19.98 28.15Q22.30 25.40 25.45 23Q26.10 22.50 26.65 22.50Q27.35 22.50 27.93 23.40Q28.50 24.30 28.50 25.05Q28.50 25.35 28.35 25.60Q28.15 25.85 28.00 25.85Q27.90 25.85 27.88 25.70Q27.85 25.55 27.80 25.40Q27.75 25 27.25 25Q26.75 25 26.13 25.32Q25.50 25.65 25.25 25.80Q22.20 27.95 19.25 31.35Q18.60 32.15 17.95 32.92Q17.30 33.70 16.70 34.50Q16.25 35.10 15.45 36.42Q14.65 37.75 14.03 39.27Q13.40 40.80 13.40 42Q13.40 42.90 13.90 43.50Q14.40 44.10 15.65 44.10Q18.15 44.10 20.38 42.95Q22.60 41.80 24.55 40.55Q28.30 38.15 31.75 35.20Q31.90 35.05 32 35.05Q32.10 35.05 32.10 35.20Q32.10 35.35 31.90 35.65Q31.40 36.30 29.55 38.02Q27.70 39.75 24.95 41.55Q22.65 43.10 20.40 44.05Q18.15 45 15.35 45.25ZM43.80 45.05Q42.30 45.05 41.18 44.30Q40.05 43.55 40.05 41.50Q40.10 40.45 40.43 39.33Q40.75 38.20 41.15 37.20Q40.50 37.95 39.20 39.20Q37.90 40.45 36.28 41.73Q34.65 43 32.95 43.90Q31.25 44.80 29.75 44.80Q28.25 44.80 27.30 43.70Q26.65 43 26.65 41.80Q26.65 40.40 27.58 38.75Q28.50 37.10 30.03 35.52Q31.55 33.95 33.33 32.70Q35.10 31.45 36.80 30.90Q39.15 30.15 40.50 30.15Q41.95 30.15 42.63 30.92Q43.30 31.70 43.50 33.15L43.50 33.30Q43.50 33.65 43.33 33.88Q43.15 34.10 43 34.10Q42.75 34.10 42.75 33.70Q42.75 33.45 42.68 32.98Q42.60 32.50 42.23 32.08Q41.85 31.65 40.95 31.65Q39.70 31.65 38.10 32.35Q36.50 33.05 34.85 34.23Q33.20 35.40 31.75 36.77Q30.30 38.15 29.35 39.50Q28.40 40.85 28.25 41.90Q28.20 42.05 28.20 42.20Q28.20 42.35 28.20 42.45Q28.20 43.35 28.58 43.70Q28.95 44.05 29.55 44.05Q30.45 44.05 31.63 43.50Q32.80 42.95 33.80 42.25Q34.80 41.55 35.20 41.20Q36.80 39.85 38.80 38.23Q40.80 36.60 42.35 35.20Q42.60 35.05 42.90 35.05Q43.60 35.05 44.05 35.40Q44.20 35.55 44.20 35.80Q44.20 36.05 44.08 36.42Q43.95 36.80 43.75 37.25Q42.90 39 42.35 40.40Q41.80 41.80 41.80 42.75Q41.80 44.25 43.45 44.25Q44.70 44.25 47.15 43.35Q49.80 42.35 52.45 40.60Q55.10 38.85 57.25 37.05Q57.80 36.60 58.25 36.30Q58.70 36 59.20 35.50Q59.30 35.45 59.45 35.45Q59.60 35.45 59.60 35.60Q59.60 35.75 59.40 36Q59.10 36.40 57.95 37.48Q56.80 38.55 55.10 39.88Q53.40 41.20 51.43 42.42Q49.45 43.65 47.45 44.35Q46.70 44.60 45.73 44.83Q44.75 45.05 43.80 45.05ZM57.80 45.05Q56.85 45.05 55.93 44.63Q55 44.20 55 43.05Q55 42.25 55.43 40.95Q55.85 39.65 56.53 38.23Q57.20 36.80 57.98 35.52Q58.75 34.25 59.45 33.45Q60.15 32.65 60.60 32.65Q60.80 32.65 61.25 32.88Q61.70 33.10 62.10 33.42Q62.50 33.75 62.50 34.05Q62.50 34.10 62.43 34.40Q62.35 34.70 62.05 34.85Q61.25 35.20 60.25 36.15Q59.25 37.10 58.30 38.35Q57.35 39.60 56.73 40.90Q56.10 42.20 56.10 43.30Q56.10 44 56.80 44Q57.50 44 58.75 43.35Q60 42.70 61.40 41.73Q62.80 40.75 64.08 39.77Q65.35 38.80 66.18 38.13Q67 37.45 67.05 37.40L69.90 35.30Q70.30 35.05 70.55 35.05Q71.05 35.05 71.35 35.48Q71.65 35.90 71.65 36.45Q71.65 36.85 71.63 37.20Q71.60 37.55 71.60 37.95Q71.60 40.10 72.53 41.80Q73.45 43.50 75.70 43.50Q77.50 43.50 79 42.52Q80.50 41.55 81.43 39.92Q82.35 38.30 82.35 36.30Q82.35 35.85 82.20 35.35Q81.50 35.35 80.72 35.23Q79.95 35.10 79.43 34.67Q78.90 34.25 78.90 33.35Q78.90 32.60 79.65 32.60Q80.45 32.60 81.50 33.17Q82.55 33.75 82.95 34.30Q83.50 34.35 83.93 34.38Q84.35 34.40 84.45 34.40Q85 34.45 85.58 34.45Q86.15 34.45 86.75 34.45Q88.10 34.45 89.28 34.38Q90.45 34.30 90.95 34.10L91 34.10Q91.15 34.10 91.15 34.25Q91.15 34.55 90.85 34.65Q90.30 34.85 89.05 35Q87.80 35.15 86.33 35.25Q84.85 35.35 83.50 35.35Q83.60 35.70 83.68 36.05Q83.75 36.40 83.75 36.80Q83.75 38.20 83.03 39.55Q82.30 40.90 81.10 42Q79.90 43.10 78.55 43.75Q77.20 44.40 75.90 44.40Q73.55 44.40 72.15 43.33Q70.75 42.25 70.08 40.52Q69.40 38.80 69.15 36.90Q68.45 37.60 67.28 38.60Q66.10 39.60 64.70 40.73Q63.30 41.85 61.93 42.83Q60.55 43.80 59.45 44.42Q58.35 45.05 57.80 45.05ZM90.45 44.90L90.25 44.90Q89.75 44.90 89.75 44.30Q89.75 43.80 89.97 43.27Q90.20 42.75 90.25 42.60Q90.65 41.75 91.53 40.35Q92.40 38.95 93.50 37.38Q94.60 35.80 95.80 34.38Q97 32.95 98.05 32.05Q99.10 31.15 99.85 31.15Q100.05 31.15 100.67 31.48Q101.30 31.80 101.60 32Q101.85 32.15 101.85 32.40Q101.85 32.80 101.50 32.80L101.25 32.80Q101.10 32.80 100.95 32.83Q100.80 32.85 100.50 33Q99.75 33.35 98.65 34.27Q97.55 35.20 96.35 36.48Q95.15 37.75 94.08 39.05Q93 40.35 92.25 41.40Q91.50 42.45 91.25 42.95Q91.70 42.25 92.75 41.23Q93.80 40.20 95.17 39.10Q96.55 38 98.03 37.08Q99.50 36.15 100.85 35.60Q102 35.10 102.90 35.10Q104.10 35.10 104.63 35.90Q105.15 36.70 105.33 37.88Q105.50 39.05 105.60 40.25Q105.80 42.15 106.40 42.90Q107 43.65 107.95 43.65Q108.65 43.65 109.55 43.33Q110.45 43 111.50 42.50Q113.60 41.45 115.83 39.88Q118.05 38.30 120.10 36.60L123.25 34Q123.65 33.70 123.75 33.70Q124.05 33.70 123.28 34.83Q122.50 35.95 120.75 37.40Q119.40 38.50 117.72 39.80Q116.05 41.10 114.22 42.25Q112.40 43.40 110.58 44.15Q108.75 44.90 107.15 44.90Q105.65 44.90 104.92 44.08Q104.20 43.25 103.90 42.02Q103.60 40.80 103.40 39.55Q103.20 38.30 102.78 37.48Q102.35 36.65 101.35 36.65Q100.70 36.65 99.85 37Q99 37.35 97.80 38.20Q96.20 39.30 94.92 40.42Q93.65 41.55 92.60 42.60Q92.25 42.95 91.75 43.50Q91.25 44.05 90.88 44.48Q90.50 44.90 90.45 44.90ZM119.75 45.05Q118.80 45.05 117.88 44.63Q116.95 44.20 116.95 43.05Q116.95 42.25 117.38 40.95Q117.80 39.65 118.48 38.23Q119.15 36.80 119.93 35.52Q120.70 34.25 121.40 33.45Q122.10 32.65 122.55 32.65Q122.75 32.65 123.20 32.88Q123.65 33.10 124.05 33.42Q124.45 33.75 124.45 34.05Q124.45 34.10 124.38 34.40Q124.30 34.70 124 34.85Q123.20 35.20 122.20 36.15Q121.20 37.10 120.25 38.35Q119.30 39.60 118.68 40.90Q118.05 42.20 118.05 43.30Q118.05 44 118.75 44Q119.45 44 120.70 43.35Q121.95 42.70 123.35 41.73Q124.75 40.75 126.03 39.77Q127.30 38.80 128.13 38.13Q128.95 37.45 129 37.40L131.85 35.30Q132.25 35.05 132.50 35.05Q133 35.05 133.30 35.48Q133.60 35.90 133.60 36.45Q133.60 36.85 133.58 37.20Q133.55 37.55 133.55 37.95Q133.55 40.10 134.48 41.80Q135.40 43.50 137.65 43.50Q139.45 43.50 140.95 42.52Q142.45 41.55 143.38 39.92Q144.30 38.30 144.30 36.30Q144.30 35.85 144.15 35.35Q143.45 35.35 142.68 35.23Q141.90 35.10 141.38 34.67Q140.85 34.25 140.85 33.35Q140.85 32.60 141.60 32.60Q142.40 32.60 143.45 33.17Q144.50 33.75 144.90 34.30Q145.45 34.35 145.88 34.38Q146.30 34.40 146.40 34.40Q146.95 34.45 147.53 34.45Q148.10 34.45 148.70 34.45Q150.05 34.45 151.23 34.38Q152.40 34.30 152.90 34.10L152.95 34.10Q153.10 34.10 153.10 34.25Q153.10 34.55 152.80 34.65Q152.25 34.85 151 35Q149.75 35.15 148.28 35.25Q146.80 35.35 145.45 35.35Q145.55 35.70 145.63 36.05Q145.70 36.40 145.70 36.80Q145.70 38.20 144.98 39.55Q144.25 40.90 143.05 42Q141.85 43.10 140.50 43.75Q139.15 44.40 137.85 44.40Q135.50 44.40 134.10 43.33Q132.70 42.25 132.03 40.52Q131.35 38.80 131.10 36.90Q130.40 37.60 129.22 38.60Q128.05 39.60 126.65 40.73Q125.25 41.85 123.88 42.83Q122.50 43.80 121.40 44.42Q120.30 45.05 119.75 45.05ZM160.00 44.60Q158.90 44.60 157.83 44.27Q156.75 43.95 155.80 43.20Q154.15 41.85 154.15 39.95Q154.15 38.25 155.28 36.52Q156.40 34.80 158.05 33.30Q159.70 31.80 161.30 30.90Q161.85 30.55 162.73 30.38Q163.60 30.20 164.40 30.20Q164.70 30.20 164.98 30.20Q165.25 30.20 165.45 30.30Q166.70 30.65 167.28 31.35Q167.85 32.05 167.85 32.90Q167.85 34.15 167.05 35.02Q166.25 35.90 165.03 36.48Q163.80 37.05 162.48 37.40Q161.15 37.75 160.03 37.88Q158.90 38 158.35 38Q157.20 38 156.65 37.85Q155.75 39.20 155.55 40.30Q155.50 40.45 155.50 40.63Q155.50 40.80 155.50 40.95Q155.50 42.05 156.43 42.88Q157.35 43.70 159.60 43.70Q161.65 43.65 163.93 42.75Q166.20 41.85 168.43 40.42Q170.65 39 172.65 37.42Q174.65 35.85 176.20 34.50Q176.30 34.40 176.45 34.40Q176.60 34.40 176.63 34.55Q176.65 34.70 176.50 34.95Q175.95 35.75 174.60 36.90Q173.25 38.05 171.68 39.25Q170.10 40.45 168.78 41.35Q167.45 42.25 166.90 42.55Q165.40 43.35 163.60 43.98Q161.80 44.60 160.00 44.60M157.75 37.40Q158.15 37.40 158.65 37.35Q159.15 37.30 159.70 37.20Q160.45 37.05 161.60 36.67Q162.75 36.30 163.93 35.70Q165.10 35.10 165.90 34.27Q166.70 33.45 166.70 32.45Q166.70 31.50 165.50 31.50Q164.55 31.50 163.20 32.15Q161.65 32.90 159.93 34.33Q158.20 35.75 157.00 37.35Q157.15 37.40 157.35 37.40Q157.55 37.40 157.75 37.40ZM181.15 29.35Q180.25 29.35 180.25 28.35Q180.25 27.95 180.45 27.55Q180.60 27.15 181.45 26.88Q182.30 26.60 183.28 26.47Q184.25 26.35 184.80 26.35Q185.25 26.35 185.25 26.40Q185.25 26.50 184.75 26.70Q184.25 26.90 183.70 27.20Q183.15 27.50 182.95 27.90Q182.70 28.55 182.18 28.95Q181.65 29.35 181.15 29.35M174.35 44.90Q172.95 44.90 171.90 44.38Q170.85 43.85 170.85 42.45Q170.85 40.90 171.68 39.45Q172.50 38 173.55 36.83Q174.60 35.65 175.30 35.05Q174.85 34.95 175.45 34.15Q176.05 33.35 177.20 32.85Q177.50 32.75 177.75 32.75Q178.30 32.75 178.88 33Q179.45 33.25 179.45 33.70Q179.45 33.95 179.25 34.20Q179.05 34.45 178.85 34.60Q178.05 35.20 176.63 36.48Q175.20 37.75 174.20 39Q172.35 41.35 172.35 42.65Q172.35 44.05 174.60 44.05Q176.45 44.05 178.22 43.48Q180 42.90 181.55 42.10Q184 40.85 186.10 39.08Q188.20 37.30 190.45 35.50Q190.55 35.45 190.70 35.45Q190.85 35.45 190.85 35.60Q190.85 35.75 190.65 36Q190.35 36.40 189.40 37.33Q188.45 38.25 187.03 39.40Q185.60 40.55 183.88 41.67Q182.15 42.80 180.35 43.60Q179.40 44 177.68 44.45Q175.95 44.90 174.35 44.90ZM192.50 45Q191.50 45 191.50 43.95Q191.50 43.55 191.65 43.20Q191.90 42.50 192.73 42.25Q193.55 42 194.20 42.10Q194.65 42.15 194.65 42.70Q194.65 43.15 194.35 43.75Q194.05 44.35 193.53 44.67Q193.00 45 192.50 45ZM208.65 47.25Q207.00 47.25 205.60 45.92Q204.20 44.60 203.25 42.40Q202.90 41.70 202.73 41.08Q202.55 40.45 202.35 39.95Q200.90 41.05 199.58 41.90Q198.25 42.75 197.35 43.15Q197.10 43.15 197.10 42.80Q197.10 42.60 197.25 42.35Q197.40 42.10 197.75 41.90Q198.65 41.35 199.65 40.70Q200.65 40.05 201.65 39.35Q201.25 39.10 200.90 38.83Q200.55 38.55 200.35 38.20Q200.25 38.05 200.25 37.70Q200.25 37 200.73 36.27Q201.20 35.55 201.65 35.55Q202.10 35.55 202.25 36.30L202.55 37.65L202.65 37.75Q202.75 37.90 202.83 38.05Q202.90 38.20 203.00 38.35Q205.35 36.60 207.58 34.65Q209.80 32.70 211.45 31Q211.45 31 211.48 30.98Q211.50 30.95 211.50 30.90Q211.95 29.40 213.23 28.02Q214.50 26.65 216.20 26.65Q216.85 26.65 217.40 26.85Q217.85 27.05 217.85 27.50Q217.85 27.95 217.43 28.32Q217.00 28.70 216.25 28.55Q216.05 28.50 215.90 28.50Q215.75 28.50 215.60 28.50Q214.90 28.50 214.40 28.77Q213.90 29.05 213.40 29.55Q212.50 30.50 212.25 32.27Q212.00 34.05 212.00 36.15Q212.00 37.10 212.03 38.05Q212.05 39 212.05 39.95Q212.05 40.95 212.00 41.92Q211.95 42.90 211.80 43.75Q212.05 43.75 212.33 43.77Q212.60 43.80 212.90 43.80Q214.50 43.80 216.13 43.50Q217.75 43.20 219.15 42.60Q221.05 41.75 222.88 40.58Q224.70 39.40 226.65 38Q227.25 37.55 228.30 36.63Q229.35 35.70 229.95 35.25Q230.05 35.20 230.15 35.20Q230.40 35.20 230.40 35.45Q230.40 35.65 230.20 35.85Q228.10 37.90 225.30 40.10Q222.50 42.30 219.15 43.75Q217.30 44.40 215.35 44.73Q213.40 45.05 211.50 44.95Q211.15 46 210.48 46.63Q209.80 47.25 208.65 47.25M209.25 43.30Q209.75 42 210.03 40.15Q210.30 38.30 210.55 36.23Q210.80 34.15 211.15 32.35Q209.60 33.85 207.55 35.65Q205.50 37.45 203.45 39.10Q204.55 40.55 205.98 41.65Q207.40 42.75 209.25 43.30M207.30 45.15Q208.05 45.15 208.70 44.40Q207.15 43.85 205.85 42.90Q204.55 41.95 203.50 40.40Q204.20 42.15 205.18 43.65Q206.15 45.15 207.30 45.15ZM228.25 45.40Q226.45 45.40 225.68 44.45Q224.90 43.50 224.90 42.30Q224.90 41.90 224.95 41.52Q225.00 41.15 225.15 40.80Q225.55 39.60 226.40 38.35Q227.25 37.10 228.35 36.15Q229.45 35.20 230.50 35Q230.70 34.95 231.23 35.17Q231.75 35.40 232.23 35.67Q232.70 35.95 232.70 36.05Q232.80 36.15 232.83 36.42Q232.85 36.70 232.50 36.45Q232.05 36.15 231.13 36.75Q230.20 37.35 229.28 38.27Q228.35 39.20 227.80 39.80Q227.25 40.55 226.78 41.48Q226.30 42.40 226.30 43.15Q226.30 43.75 226.70 44.13Q227.10 44.50 228.10 44.50Q228.35 44.50 228.63 44.48Q228.90 44.45 229.25 44.40Q230.25 44.20 231.73 43.48Q233.20 42.75 234.83 41.60Q236.45 40.45 237.85 39.15Q238.70 38.40 239.48 37.40Q240.25 36.40 240.75 35.40Q238.90 35.35 236.98 35.23Q235.05 35.10 233.40 34.77Q231.75 34.45 230.75 33.90Q230.10 33.50 229.80 33.10Q229.50 32.70 229.50 32.35Q229.50 32 229.73 31.77Q229.95 31.55 230.20 31.55Q230.45 31.55 230.65 31.70Q230.85 31.85 231.03 32Q231.20 32.15 231.40 32.25Q233.30 31.15 235.15 30.73Q237.00 30.30 238.35 30.30Q239.90 30.30 241.10 30.95Q242.30 31.60 242.50 33.20Q242.60 33.90 242.50 34.50Q243.35 34.55 244.20 34.55Q245.05 34.55 245.80 34.55Q247.30 34.55 248.93 34.33Q250.55 34.10 251.93 33.75Q253.30 33.40 254.00 33.05Q254.35 32.85 254.55 32.85Q254.75 32.85 254.75 33Q254.75 33.35 253.95 33.70Q252.85 34.20 250.58 34.73Q248.30 35.25 245.80 35.35Q245.15 35.40 244.25 35.42Q243.35 35.45 242.30 35.45Q241.80 37.50 240.23 39.30Q238.65 41.10 236.53 42.48Q234.40 43.85 232.20 44.63Q230.00 45.40 228.25 45.40M241.15 34.45Q241.35 33.90 241.35 33.30Q241.35 32.45 240.70 31.85Q240.05 31.25 238.45 31.20Q236.75 31.20 235.20 31.60Q233.65 32 232.35 32.70Q234.25 33.55 236.55 33.95Q238.85 34.35 241.15 34.45ZM248.05 44.90L247.85 44.90Q247.35 44.90 247.35 44.30Q247.35 43.80 247.58 43.27Q247.80 42.75 247.85 42.60Q248.25 41.75 249.13 40.35Q250.00 38.95 251.10 37.38Q252.20 35.80 253.40 34.38Q254.60 32.95 255.65 32.05Q256.70 31.15 257.45 31.15Q257.65 31.15 258.28 31.48Q258.90 31.80 259.20 32Q259.45 32.15 259.45 32.40Q259.45 32.80 259.10 32.80L258.85 32.80Q258.70 32.80 258.55 32.83Q258.40 32.85 258.10 33Q257.35 33.35 256.25 34.27Q255.15 35.20 253.95 36.48Q252.75 37.75 251.68 39.05Q250.60 40.35 249.85 41.40Q249.10 42.45 248.85 42.95Q249.30 42.25 250.35 41.23Q251.40 40.20 252.78 39.10Q254.15 38 255.63 37.08Q257.10 36.15 258.45 35.60Q259.60 35.10 260.50 35.10Q261.70 35.10 262.23 35.90Q262.75 36.70 262.93 37.88Q263.10 39.05 263.20 40.25Q263.40 42.15 264 42.90Q264.60 43.65 265.55 43.65Q266.25 43.65 267.15 43.33Q268.05 43 269.10 42.50Q271.20 41.45 273.43 39.88Q275.65 38.30 277.70 36.60L280.85 34Q281.25 33.70 281.35 33.70Q281.65 33.70 280.88 34.83Q280.10 35.95 278.35 37.40Q277 38.50 275.33 39.80Q273.65 41.10 271.83 42.25Q270 43.40 268.18 44.15Q266.35 44.90 264.75 44.90Q263.25 44.90 262.53 44.08Q261.80 43.25 261.50 42.02Q261.20 40.80 261 39.55Q260.80 38.30 260.38 37.48Q259.95 36.65 258.95 36.65Q258.30 36.65 257.45 37Q256.60 37.35 255.40 38.20Q253.80 39.30 252.53 40.42Q251.25 41.55 250.20 42.60Q249.85 42.95 249.35 43.50Q248.85 44.05 248.48 44.48Q248.10 44.90 248.05 44.90ZM270.10 64.10Q269.05 64.10 267.95 63.83Q266.85 63.55 266.07 62.80Q265.30 62.05 265.30 60.60Q265.30 58.75 266.32 57.08Q267.35 55.40 268.95 53.98Q270.55 52.55 272.30 51.45Q274.45 50.05 276.95 48.80Q279.45 47.55 282.15 46.70Q284.85 45.85 287.55 45.75Q288.50 43.85 289.07 41.85Q289.65 39.85 289.65 38.35Q289.65 37.10 289.20 36.50Q288.75 36.80 288.60 37.10Q287.90 37.85 286.68 39.10Q285.45 40.35 283.93 41.65Q282.40 42.95 280.85 43.85Q279.30 44.75 277.95 44.75Q277.30 44.75 276.68 44.45Q276.05 44.15 275.60 43.50Q275.05 42.70 275.05 41.70Q275.05 40.25 275.98 38.55Q276.90 36.85 278.32 35.25Q279.75 33.65 281.38 32.45Q283 31.25 284.40 30.75Q284.85 30.60 285.38 30.50Q285.90 30.40 286.50 30.40Q287.90 30.40 289.18 31Q290.45 31.60 290.65 33.15L290.65 33.30Q290.65 33.65 290.48 33.88Q290.30 34.10 290.15 34.10Q289.90 34.10 289.90 33.70Q289.90 33.45 289.77 32.98Q289.65 32.50 289.20 32.10Q288.75 31.70 287.85 31.70Q286.30 31.70 284.43 32.77Q282.55 33.85 280.80 35.50Q279.05 37.15 277.85 38.90Q276.65 40.65 276.45 42Q276.40 42.20 276.40 42.35Q276.40 42.50 276.40 42.65Q276.40 44.10 277.50 44.10Q278.30 44.10 279.38 43.48Q280.45 42.85 281.43 42.10Q282.40 41.35 282.80 41Q284.15 39.85 285.63 38.58Q287.10 37.30 288.50 36.05Q288.35 35.95 288.35 35.65Q288.35 35.35 288.63 34.98Q288.90 34.60 289.65 34.60Q290.95 34.60 291.45 35.42Q291.95 36.25 291.95 37.50Q291.95 39.20 291.23 41.48Q290.50 43.75 289.55 45.80Q290.75 45.85 292.07 46.23Q293.40 46.60 293.65 47.50Q293.75 47.65 293.60 47.75Q293.45 47.85 293.40 47.65Q293.05 46.95 291.73 46.70Q290.40 46.45 289.25 46.50Q288.85 47.45 288.43 48.25Q288 49.05 287.65 49.70Q286 52.70 283.88 55.30Q281.75 57.90 279.38 59.88Q277 61.85 274.63 62.98Q272.25 64.10 270.10 64.10M269.55 63.35Q272.20 63.35 274.63 61.92Q277.05 60.50 279.27 58.10Q281.50 55.70 283.45 52.73Q285.40 49.75 287.05 46.65Q282.65 47.15 278.40 49.40Q274.15 51.65 270.60 54.60Q268.45 56.35 267.48 57.92Q266.50 59.50 266.50 60.70Q266.50 61.90 267.32 62.63Q268.15 63.35 269.55 63.35Z"/>
</g></g></svg>