<svg xmlns="http://www.w3.org/2000/svg" viewBox="0 22.5 293.69000244140625 41.599998474121094" data-asc="0.89">
<!-- font: https://text-to-svg.com/are-you%20serious-font-to-svg; mk: https://text-to-svg.com/ -->
<g fill="#ed900c"><g fill="#ed900c" transform="translate(0, 0)">
<path d="M10.95 45.70Q10.80 45.75 10.68 45.83Q10.55 45.90 10.40 45.90Q10.15 45.90 9.93 45.70Q9.70 45.50 9.70 45.20Q9.70 45 9.95 44.65Q10.20 44.35 10.38 44Q10.55 43.65 10.70 43.35Q10.70 43.25 10.68 43.23Q10.65 43.20 10.65 43.15Q10.65 42.75 10.85 42.48Q11.05 42.20 11.15 41.85Q11.15 41.65 11.03 41.40Q10.90 41.15 10.75 40.85Q9.90 41.85 8.75 42.50Q8.55 42.75 8.25 42.90L7.40 43.15Q7.20 43.20 6.95 43.27Q6.70 43.35 6.45 43.45Q6.10 43.80 5.83 44.02Q5.55 44.25 5 44.25Q4.75 44.25 4.55 44.17Q4.35 44.10 4.10 44.10Q3.90 44.10 3.63 44.17Q3.35 44.25 3 44.25Q2.05 44.25 1.45 43.60Q0.85 42.95 0.52 42Q0.20 41.05 0.10 40.05Q0 39.05 0 38.40Q0 36.25 0.90 35Q1.80 33.75 3.10 32.80Q3.20 32.70 3.28 32.65Q3.35 32.60 3.45 32.55Q4 32.15 4.55 31.80Q5.10 31.45 5.65 31.10L5.75 31Q6.35 30.40 7.10 30.40L7.40 30.40Q7.40 30.40 7.42 30.38Q7.45 30.35 7.50 30.35Q7.60 30.35 7.83 30.50Q8.05 30.65 8.15 30.60Q8.65 30.35 8.85 30.35Q9.05 30.35 9.25 30.40Q9.45 30.45 9.70 30.55Q9.95 30.60 10.20 30.70Q10.45 30.80 10.65 30.90Q10.80 29.90 10.98 28.95Q11.15 28 11.15 27.05Q11.15 26.65 11.13 26.02Q11.10 25.40 11.15 24.75Q10.95 24.40 10.68 24.17Q10.40 23.95 10.05 23.95L9.90 23.95Q9.80 24 9.68 24.02Q9.55 24.05 9.35 24.05Q9.35 24.05 9.23 24.02Q9.10 24 8.90 23.95Q7.95 23.70 7.95 22.95Q7.95 22.25 8.70 22.25Q9.10 22.25 9.32 22.30Q9.55 22.35 10.05 22.35L10.75 22.35Q11.20 22.20 11.50 22Q11.80 21.80 12.30 21.80Q12.60 21.15 13.40 21.15Q13.95 20.85 14.13 20.55Q14.30 20.25 15.10 20Q15.55 19.85 16 19.77Q16.45 19.70 16.85 19.50Q17.10 19.35 17.35 19.35Q17.95 19.35 17.95 19.95Q17.95 20.25 17.65 20.63Q17.35 21 16.65 21.35Q16.20 21.90 15.33 22.72Q14.45 23.55 13.90 24.25L13.90 25Q13.90 26.55 13.53 28.07Q13.15 29.60 13.15 31.15L13.15 33.40Q13.15 35.35 13.25 37.10Q13.35 38.85 13.40 40.75Q13.50 40.90 13.60 41.08Q13.70 41.25 13.75 41.40Q13.90 41.10 14.30 41Q14.80 40.60 15.20 40.23Q15.60 39.85 16.60 39.85Q17.20 39.85 17.20 40.25Q17.20 40.60 16.78 41.15Q16.35 41.70 15.83 42.10Q15.30 42.50 15 42.50L14.85 42.50L14.80 42.60Q14.65 42.95 13.82 43.60Q13 44.25 12.13 44.85Q11.25 45.45 10.95 45.70M4.85 41.70Q5.50 41.60 6.15 41.55Q6.80 41.50 7.60 41.50Q9.70 40.45 10.35 38.55Q10.35 37.65 10.32 36.65Q10.30 35.65 10.30 34.55Q9.95 33.70 9.57 32.92Q9.20 32.15 7.90 32.10Q7.55 32.10 6.90 32.25Q6.25 32.40 5.40 32.95Q4.95 33.50 4.58 34.48Q4.20 35.45 3.98 36.48Q3.75 37.50 3.75 38.25Q3.75 38.95 3.95 40.10Q4.15 41.25 4.85 41.70ZM19.65 43.25Q18.90 43.25 18.45 42.67Q18.00 42.10 17.83 41.35Q17.65 40.60 17.65 40Q17.65 39.35 17.95 38.92Q18.25 38.50 18.65 38.05L18.60 38Q18.20 37.60 18.20 37.15Q18.20 36.55 18.68 36Q19.15 35.45 19.50 35.05Q20.35 34.05 21.65 33.70Q22.95 33.35 24.20 33.35Q24.50 33.35 25.45 33.63Q26.40 33.90 27.20 34.30Q27.20 33.85 27.18 33.42Q27.15 33 27.00 32.50Q26.95 32.25 26.88 31.95Q26.80 31.65 26.80 31.35Q26.80 31 26.95 30.70Q26.35 30.45 26.35 29.80Q26.35 28 25.10 28Q23.55 28 22.35 28.30Q21.70 28.60 21.25 29.17Q20.80 29.75 20.15 30.75Q20.05 30.95 20.05 31.05Q20.15 31.25 20.23 31.42Q20.30 31.60 20.40 31.75Q20.75 32 21.20 32Q21.20 32 21.43 31.75Q21.65 31.50 21.65 31.45L21.65 31.25Q21.45 31 21.45 30.75Q21.45 30.15 22.20 30.15Q22.55 30.15 22.83 30.40Q23.10 30.65 23.10 31.25L23.10 31.45Q23.10 31.95 22.50 32.70Q21.90 33.45 21.20 33.45Q20.95 33.45 20.68 33.38Q20.40 33.30 20.15 33.25Q19.95 33.25 19.75 33.15Q19.55 33.05 19.30 32.75Q19.00 32.50 18.78 32.15Q18.55 31.80 18.55 31.35Q18.50 31.10 18.43 30.92Q18.35 30.75 18.35 30.70Q18.35 30.45 18.43 30.27Q18.50 30.10 18.55 29.95Q18.35 29.60 18.55 29.30Q19.00 28.30 19.85 27.75Q20.70 27.20 21.70 26.95Q22.50 26.55 23.38 26.45Q24.25 26.35 25.30 26.35Q26.60 26.35 26.88 26.65Q27.15 26.95 27.60 27.90Q28.55 28.35 28.98 28.82Q29.40 29.30 29.55 30.60Q29.70 31.90 29.65 33.25Q29.60 34.60 29.78 35.88Q29.95 37.15 30.60 38.35Q30.65 38.50 30.85 38.80Q31.30 38.55 31.75 38.30Q32.20 38.05 32.70 38L32.85 38Q33.20 38 33.38 38.23Q33.55 38.45 33.55 38.70Q33.55 38.90 33.40 39.13Q33.25 39.35 32.95 39.40Q32.65 39.45 32 39.85Q31.35 40.25 30.75 40.45Q30.10 40.75 29.60 41.17Q29.10 41.60 28.55 42.30Q28.25 42.60 27.90 42.60Q27.10 42.60 27.25 41.65Q27.30 41.55 27.38 40.95Q27.45 40.35 27.50 39.65Q27.20 40.10 26.68 40.52Q26.15 40.95 25.20 41.45Q25.10 41.50 24.83 41.63Q24.55 41.75 24.40 41.80Q23.90 42 23.45 42.27Q23.00 42.55 22.55 42.95Q22.35 43.15 22.08 43.25Q21.80 43.35 21.35 43.35Q21.15 43.35 20.85 43.33Q20.55 43.30 20.20 43.25L19.65 43.25M22.90 40.75Q23.15 40.75 23.25 40.70Q24.55 40.05 25.25 39.77Q25.95 39.50 26.33 38.98Q26.70 38.45 27.00 37.10Q27.00 37 27.03 36.88Q27.05 36.75 27.05 36.55Q27.05 35.90 26.90 35.70Q26.25 35 25.35 35Q24.85 35 24.38 35.10Q23.90 35.20 23.45 35.15Q23.35 35.80 22.75 35.80L22.50 35.80Q22.30 36.35 21.80 36.35L21.65 36.35Q21.45 37.05 20.95 37.52Q20.45 38 20.45 38.80L20.45 39.15Q20.95 39.65 20.95 40.25Q21.25 40.35 21.48 40.52Q21.70 40.70 21.90 40.70L21.95 40.70L22.90 40.75ZM51.05 44.20Q50.85 44.75 50.50 44.75Q50.05 44.75 49.53 44.15Q49 43.55 48.63 42.90Q48.25 42.25 48.20 42.10Q48.15 42 48.15 41.75Q48.15 41.30 48.35 41.05Q48.25 40.85 48.15 40.67Q48.05 40.50 47.95 40.35Q47.50 39.75 47.08 39.10Q46.65 38.45 46.40 37.80Q45.90 38.30 45.35 38.75Q44.80 39.20 44.25 39.60Q43.50 40.65 42.35 41Q42.50 41.30 42.15 41.55Q41.80 41.80 41.38 42.23Q40.95 42.65 40.75 43.50Q40.60 44.15 40.05 44.15Q39.80 44.15 39.58 43.92Q39.35 43.70 39.35 43.30Q39.35 42.85 39.35 42.42Q39.35 42 39.40 41.55Q39 41.30 38.90 41Q38.80 40.70 38.80 40.35L38.80 39.90Q38.80 39.60 38.75 39.45Q38.75 39.45 38.73 39.48Q38.70 39.50 38.65 39.50Q38.35 39.50 38.13 39.27Q37.90 39.05 37.90 38.75Q37.90 38.25 38 38.02Q38.10 37.80 38.10 37.40Q38.10 37.15 37.78 36.85Q37.45 36.55 37.30 36.30Q37.10 35.95 36.88 35.17Q36.65 34.40 36.33 33.75Q36 33.10 35.50 33.10L35.40 33.10Q34.80 33.10 34.65 32.90Q34.35 33 34.25 33.10Q34.05 33.20 33.90 33.20Q33.60 33.20 33.38 32.95Q33.15 32.70 33.15 32.40Q33.15 32 33.55 31.80Q34.60 31.25 35.75 31Q36.90 30.75 37.98 30.40Q39.05 30.05 39.95 29.30Q40.45 28.90 40.95 28.50Q41.45 28.10 42 27.85Q42.15 27.75 42.45 27.75Q43.10 27.75 43.10 28.40Q43.10 28.75 42.75 29.05Q41.50 30 40.60 30.98Q39.70 31.95 39.70 33.70Q39.70 34.65 40.13 35.33Q40.55 36 40.80 36.90Q41 37.45 41.15 38.20Q41.30 38.95 41.55 39.60L41.80 39.50Q42.30 38.95 42.80 38.55Q43.30 38.15 43.80 37.80Q44.30 36.95 44.88 36.15Q45.45 35.35 46.30 34.95Q46.70 34.70 46.95 34.20Q47.20 33.70 47.40 33.15Q47.40 32.90 47.50 32.80Q47.55 32.55 47.60 32.38Q47.65 32.20 47.70 32Q47.90 31.35 48.45 31.35Q48.70 31.35 48.90 31.57Q49.10 31.80 49.10 32.20L49.10 32.55Q49.10 32.90 49.10 33.25Q49.10 33.60 49 33.90Q49.25 34.60 49.65 35.30Q50.05 36 50.05 36.85Q50.05 37 50.05 37.15Q50.05 37.30 50 37.45L49.95 37.55L50 37.70Q50.80 37.90 50.80 38.65Q50.80 38.75 50.78 38.95Q50.75 39.15 50.75 39.35Q50.75 39.60 50.83 39.83Q50.90 40.05 51.10 40.15L51.65 39.25Q52 38.35 52.30 37.90Q52.60 37.45 52.90 37.20Q53.10 36.40 53.28 36.17Q53.45 35.95 53.75 35.83Q54.05 35.70 54.50 35.15Q54.65 35 54.68 34.77Q54.70 34.55 54.70 34.35L54.70 34.15Q54.70 33.80 54.80 33.55Q54.90 33.30 55.35 33.25Q55.75 33.20 55.90 32.75Q56.05 32.30 56.10 31.77Q56.15 31.25 56.15 31Q56 30.70 55.23 30.63Q54.45 30.55 53.68 30.57Q52.90 30.60 52.60 30.60Q51.85 30.60 51.85 29.85Q51.85 29.60 52.05 29.38Q52.25 29.15 52.60 29.15Q55.10 29.15 57.95 28.75Q60.80 28.35 62.70 27.35Q62.95 27.20 63.15 27.20Q63.85 27.20 63.85 27.90Q63.85 28.10 63.60 28.45Q62.80 29.45 61.60 29.95Q60.40 30.45 59.65 31.35Q58.75 32.45 57.85 33.45Q56.95 34.45 56.20 35.60L55.80 36.20Q55.50 36.70 55.23 36.98Q54.95 37.25 54.70 37.50Q53.60 39.05 52.68 40.67Q51.75 42.30 51.05 44.20ZM61.40 46.85Q61.05 46.85 60.88 46.63Q60.70 46.40 60.70 46.15Q60.70 45.65 61.20 45.45L62.05 45.15Q62.45 45 62.85 44.80Q63.25 44.60 63.60 44.40Q64.50 43.50 64.63 42.33Q64.75 41.15 64.72 40.10Q64.70 39.05 65.15 38.45Q64.45 37.90 64.45 37.40Q64.45 37 64.75 36.80Q64.80 36.40 64.92 35.92Q65.05 35.45 65.10 35.10L63.40 35.10Q63.20 35.15 63.05 35.23Q62.90 35.30 62.70 35.35Q62.65 35.35 62.60 35.38Q62.55 35.40 62.45 35.40Q62.15 35.40 61.98 35.15Q61.80 34.90 61.80 34.65Q61.80 34.25 62.10 34.05Q62.30 33.75 62.65 33.70Q62.90 33.65 63.10 33.60Q63.30 33.55 63.50 33.50Q64.65 32.95 65.53 32.15Q66.40 31.35 67.30 30.63Q68.20 29.90 69.35 29.50Q69.50 29.45 69.70 29.45Q70.40 29.45 70.40 30.05Q70.40 30.30 70.15 30.65Q69.85 31 69.33 31.65Q68.80 32.30 68.38 33.05Q67.95 33.80 67.95 34.45Q67.95 34.55 67.97 34.65Q68 34.75 68.05 34.85Q68.40 35.65 68.40 36.25Q68.70 35.50 68.95 35.20Q69.20 34.90 69.55 34.70Q69.90 34.50 70.40 34.10L70.40 34Q70.40 33.45 71 33.30L71.20 33.25Q71.60 32.70 72.03 32.27Q72.45 31.85 73.25 31.55L73.25 31.45Q73.45 30.75 74.35 30.75Q76.65 30.75 77.40 32.02Q78.15 33.30 78.15 35.15Q78.15 36.70 77.85 38.45Q77.55 40.20 77.55 41.60Q77.55 42.30 77.70 42.85Q77.75 42.95 78.22 43.33Q78.70 43.70 79.20 43.95L79.45 44L79.75 44.05L79.90 44.10Q79.90 44.20 80.25 44.55Q80.60 44.90 80.60 45.15Q80.60 45.55 79.70 45.55Q79.50 45.55 79.30 45.48Q79.10 45.40 78.85 45.35Q78.35 45.25 77.90 45.15Q77.45 45.05 76.95 45L76.55 44.95Q76.50 44.95 76.45 44.92Q76.40 44.90 76.40 44.90Q75.80 44.90 74.78 44.98Q73.75 45.05 72.95 45.30Q72.70 45.40 72.50 45.52Q72.30 45.65 72.10 45.75Q71.95 45.85 71.65 45.85Q70.95 45.85 70.95 45.20Q70.95 44.85 71.30 44.55Q71.75 44.20 72.45 43.95Q73.10 43.65 73.75 43.25Q74.40 42.85 74.45 42.55Q74.40 42.45 74.33 42.35Q74.25 42.25 74.15 42.20Q73.70 41.65 73.70 41.15Q73.70 40.65 73.97 40.40Q74.25 40.15 74.40 40.05Q74.10 39.80 74.10 39.40Q74.10 38.85 74.42 38.17Q74.75 37.50 74.75 37.05Q74.75 36.30 74.45 35.80Q74.15 35.30 73.83 34.85Q73.50 34.40 73.40 33.75Q73.05 33.95 72.67 34.17Q72.30 34.40 71.90 34.60Q71.65 34.85 71.38 35.10Q71.10 35.35 70.75 35.60Q70.55 35.75 70.35 35.90Q70.15 36.05 69.90 36.30Q69.65 36.95 69.53 37.20Q69.40 37.45 68.75 38Q68.20 38.50 68 38.85L68 39Q68 39.15 68.03 39.33Q68.05 39.50 68.05 39.65Q68.05 40.50 67.88 41.35Q67.70 42.20 67.60 43.05Q68.20 43.15 68.50 43.73Q68.80 44.30 69.20 44.60Q69.50 44.75 69.75 45Q70 45.20 70 45.55Q70 45.85 69.78 46.08Q69.55 46.30 69.30 46.30Q69.05 46.30 68.85 46.10Q68.55 45.90 68.35 45.85Q67.85 46.05 67.28 45.67Q66.70 45.30 65.85 45.30Q65.50 45.30 65.13 45.40Q64.75 45.50 64.40 45.65Q64.15 45.85 63.80 46.02Q63.45 46.20 63.05 46.35L62.60 46.50Q62.40 46.55 62.15 46.65Q61.90 46.75 61.65 46.80Q61.60 46.80 61.55 46.83Q61.50 46.85 61.40 46.85ZM98.70 44.20Q98.50 44.75 98.15 44.75Q97.70 44.75 97.17 44.15Q96.65 43.55 96.27 42.90Q95.90 42.25 95.85 42.10Q95.80 42 95.80 41.75Q95.80 41.30 96 41.05Q95.90 40.85 95.80 40.67Q95.70 40.50 95.60 40.35Q95.15 39.75 94.72 39.10Q94.30 38.45 94.05 37.80Q93.55 38.30 93 38.75Q92.45 39.20 91.90 39.60Q91.15 40.65 90 41Q90.15 41.30 89.80 41.55Q89.45 41.80 89.02 42.23Q88.60 42.65 88.40 43.50Q88.25 44.15 87.70 44.15Q87.45 44.15 87.22 43.92Q87 43.70 87 43.30Q87 42.85 87 42.42Q87 42 87.05 41.55Q86.65 41.30 86.55 41Q86.45 40.70 86.45 40.35L86.45 39.90Q86.45 39.60 86.40 39.45Q86.40 39.45 86.38 39.48Q86.35 39.50 86.30 39.50Q86 39.50 85.77 39.27Q85.55 39.05 85.55 38.75Q85.55 38.25 85.65 38.02Q85.75 37.80 85.75 37.40Q85.75 37.15 85.42 36.85Q85.10 36.55 84.95 36.30Q84.75 35.95 84.52 35.17Q84.30 34.40 83.97 33.75Q83.65 33.10 83.15 33.10L83.05 33.10Q82.45 33.10 82.30 32.90Q82 33 81.90 33.10Q81.70 33.20 81.55 33.20Q81.25 33.20 81.02 32.95Q80.80 32.70 80.80 32.40Q80.80 32 81.20 31.80Q82.25 31.25 83.40 31Q84.55 30.75 85.63 30.40Q86.70 30.05 87.60 29.30Q88.10 28.90 88.60 28.50Q89.10 28.10 89.65 27.85Q89.80 27.75 90.10 27.75Q90.75 27.75 90.75 28.40Q90.75 28.75 90.40 29.05Q89.15 30 88.25 30.98Q87.35 31.95 87.35 33.70Q87.35 34.65 87.77 35.33Q88.20 36 88.45 36.90Q88.65 37.45 88.80 38.20Q88.95 38.95 89.20 39.60L89.45 39.50Q89.95 38.95 90.45 38.55Q90.95 38.15 91.45 37.80Q91.95 36.95 92.52 36.15Q93.10 35.35 93.95 34.95Q94.35 34.70 94.60 34.20Q94.85 33.70 95.05 33.15Q95.05 32.90 95.15 32.80Q95.20 32.55 95.25 32.38Q95.30 32.20 95.35 32Q95.55 31.35 96.10 31.35Q96.35 31.35 96.55 31.57Q96.75 31.80 96.75 32.20L96.75 32.55Q96.75 32.90 96.75 33.25Q96.75 33.60 96.65 33.90Q96.90 34.60 97.30 35.30Q97.70 36 97.70 36.85Q97.70 37 97.70 37.15Q97.70 37.30 97.65 37.45L97.60 37.55L97.65 37.70Q98.45 37.90 98.45 38.65Q98.45 38.75 98.42 38.95Q98.40 39.15 98.40 39.35Q98.40 39.60 98.47 39.83Q98.55 40.05 98.75 40.15L99.30 39.25Q99.65 38.35 99.95 37.90Q100.25 37.45 100.55 37.20Q100.75 36.40 100.92 36.17Q101.10 35.95 101.40 35.83Q101.70 35.70 102.15 35.15Q102.30 35 102.32 34.77Q102.35 34.55 102.35 34.35L102.35 34.15Q102.35 33.80 102.45 33.55Q102.55 33.30 103 33.25Q103.40 33.20 103.55 32.75Q103.70 32.30 103.75 31.77Q103.80 31.25 103.80 31Q103.65 30.70 102.88 30.63Q102.10 30.55 101.32 30.57Q100.55 30.60 100.25 30.60Q99.50 30.60 99.50 29.85Q99.50 29.60 99.70 29.38Q99.90 29.15 100.25 29.15Q102.75 29.15 105.60 28.75Q108.45 28.35 110.35 27.35Q110.60 27.20 110.80 27.20Q111.50 27.20 111.50 27.90Q111.50 28.10 111.25 28.45Q110.45 29.45 109.25 29.95Q108.05 30.45 107.30 31.35Q106.40 32.45 105.50 33.45Q104.60 34.45 103.85 35.60L103.45 36.20Q103.15 36.70 102.88 36.98Q102.60 37.25 102.35 37.50Q101.25 39.05 100.32 40.67Q99.40 42.30 98.70 44.20ZM114.15 43.90Q112.35 43.90 111.40 42.45Q110.75 41.95 110.17 41.27Q109.60 40.60 109.60 39.90Q109.60 39.55 109.75 39.20Q109.50 38.65 109.70 38.45L109.75 38.40Q109.60 38.30 109.45 38.10Q109.30 37.90 109.30 37.55Q109.30 37.05 109.50 36.80L109.45 36.75Q109.40 36.60 109.40 36.30Q109.40 35.75 109.77 35.23Q110.15 34.70 110.50 34.35Q110.25 33.85 110.25 33.40Q110.25 32.40 110.97 31.45Q111.70 30.50 112.25 29.90Q112.15 28.70 113.35 28.70Q113.70 28.70 114.12 28.38Q114.55 28.05 115.20 28.05Q115.45 28.05 115.60 28.10Q115.75 28.15 115.90 28.25Q117.00 28.25 117.97 29.38Q118.95 30.50 119.57 31.95Q120.20 33.40 120.20 34.50Q120.15 34.80 119.85 34.88Q119.55 34.95 119.15 35L118.75 35Q118.40 35 118.07 34.98Q117.75 34.95 117.60 34.95Q117.10 34.95 116.20 35Q115.30 35.05 114.40 35.15Q113.50 35.25 113.05 35.45Q112.55 35.65 112.35 36.50Q112.15 37.35 112.15 38.50Q112.15 39.05 112.45 40Q112.75 40.95 113.32 41.70Q113.90 42.45 114.75 42.45Q115.85 42.45 116.42 42.15Q117.00 41.85 117.35 41.30Q117.45 41.05 117.80 40.83Q118.15 40.60 118.20 40.30Q118.30 40 118.60 39.65Q118.90 39.30 119 38.95Q119.05 38.85 118.97 38.67Q118.90 38.50 118.90 38.30Q118.90 38.15 119 37.98Q119.10 37.80 119.40 37.80Q119.70 37.80 119.97 38.17Q120.25 38.55 120.25 39.25Q120.25 39.40 120.25 39.55Q120.25 39.70 120.20 39.85Q120.05 40.45 119.90 40.60Q119.85 40.75 119.70 40.90Q119.55 41.05 119.40 41.30Q119.05 41.70 118.42 42.33Q117.80 42.95 117.07 43.42Q116.35 43.90 115.75 43.90L114.15 43.90M112.45 33.95Q112.60 34 112.75 34Q112.90 34 113.05 34Q113.35 34 113.62 33.98Q113.90 33.95 114.20 33.90Q114.60 33.85 114.97 33.83Q115.35 33.80 115.60 33.80L116.30 33.80Q116.25 33.70 116.25 33.50Q116.25 32.85 117.00 32.30Q116.90 31.75 116.80 31.10Q116.70 30.45 116.30 30L115.85 29.85Q115.70 29.85 115.60 29.80Q114.50 29.85 113.90 30.73Q113.30 31.60 112.95 32.50Q112.80 32.80 112.72 33.13Q112.65 33.45 112.45 33.95ZM131.85 25.10Q131.10 25.10 130.30 24.47Q129.50 23.85 129.50 22.95Q129.50 22.55 129.95 22.10Q130.40 21.65 130.70 21.40L131.40 20.85Q131.50 20.75 131.72 20.72Q131.95 20.70 132.10 20.70Q132.75 20.70 133.20 21.32Q133.65 21.95 133.65 22.40Q133.65 22.80 133.47 23.45Q133.30 24.10 132.93 24.60Q132.55 25.10 131.85 25.10M132.35 44.40Q132.35 44.40 132.05 44.30Q131.95 44.30 131.80 44.25Q131.65 44.20 131.50 44.15Q131.15 44.05 130.85 43.98Q130.55 43.90 130.45 43.90Q130.25 43.90 129.95 44Q129.65 44.10 129.55 44.10Q129.50 44.10 129.38 44.05Q129.25 44 129.20 44Q129.05 43.95 128.90 43.90Q128.75 43.85 128.55 43.85Q128.30 43.75 127.95 43.77Q127.60 43.80 127.45 43.80L124.40 43.85Q124.25 43.85 124.20 43.80Q123.80 44 123.50 44L123.35 44Q123 44.50 122.65 44.50Q122.30 44.50 122.10 44.10Q121.90 43.70 121.90 43.20Q121.90 42.50 122.60 42.50L122.75 42.50Q123.05 42.25 123.45 42.25Q123.60 42.25 123.90 42.35Q124.20 42.25 124.40 42.25Q124.70 42.25 124.92 42.33Q125.15 42.40 125.45 42.40Q125.70 42.40 126.10 42.20Q126.50 42 126.80 41.80L126.95 41.35Q126.60 40.75 126.60 40.30Q126.60 39.70 127.30 39.30Q127.15 39 127.15 38.75Q127.15 38.40 127.50 38.05Q127.05 37.80 127.05 37.40Q127.05 37.15 127.25 36.80Q127.35 36.70 127.40 36.60Q126.85 36.35 126.85 35.65Q126.85 35.05 127.45 34.95Q127.45 34.85 127.42 34.80Q127.40 34.75 127.40 34.70Q127.40 34.40 127.55 34.20Q127.70 34 127.90 33.85Q127.55 33.45 127.65 33Q127.45 32.80 127 32.90Q126.95 32.90 126.90 32.92Q126.85 32.95 126.75 32.95Q126.45 33.05 126.35 33.05L125.85 32.95Q125.75 33.05 125.75 33.10Q125.20 33.60 124.78 33.70Q124.35 33.80 124.35 33.80Q123.65 33.80 123.65 33.05Q123.65 32.80 123.83 32.58Q124 32.35 124.35 32.35L124.50 32.35Q124.90 31.65 125.80 31.25Q126.70 30.85 127.50 30.75Q127.75 30.60 128 30.45Q128.25 30.30 128.45 30.15Q128.55 30.10 128.63 30Q128.70 29.90 128.75 29.85L128.85 29.75Q128.90 29.70 128.90 29.67Q128.90 29.65 128.90 29.65L129.30 29.40L129.75 29.15Q129.80 29.15 130 28.95Q130.15 28.80 130.43 28.55Q130.70 28.30 130.90 28.35Q131.40 28.35 131.53 28.60Q131.65 28.85 131.65 29.25Q131.70 29.60 131.65 29.70Q131.60 29.75 131.53 29.92Q131.45 30.10 131.35 30.50Q131.15 31.15 130.97 31.92Q130.80 32.70 130.60 33.45Q130.55 33.65 130.60 33.88Q130.65 34.10 130.60 34.35Q130.50 34.85 130.40 35.33Q130.30 35.80 130.25 36.30Q130.20 36.90 130.18 37.77Q130.15 38.65 130.15 39.33Q130.15 40 130.15 40.15Q130.15 40.30 130.22 40.80Q130.30 41.30 130.40 41.65Q130.70 42.35 131.45 42.90Q131.55 42.95 131.70 43Q131.85 43.05 131.95 43.10L132.55 43.25Q132.75 43.30 132.93 43.40Q133.10 43.50 133.10 43.65L133.10 43.70Q133.10 43.95 132.85 44.17Q132.60 44.40 132.35 44.40ZM143.35 43.20Q143.15 43.20 142.65 43.02Q142.15 42.85 141.70 42.48Q141.25 42.10 141.25 41.60Q141.25 41.55 141.28 41.55Q141.30 41.55 141.30 41.50Q141.50 41.30 141.50 41.10Q141.60 39.85 142.38 39.52Q143.15 39.20 143.75 39.20Q144.15 39.20 144.65 39.90Q145.15 40.60 145.15 41Q145.15 42 144.60 42.60Q144.05 43.20 143.35 43.20ZM150.55 46.45Q149.95 46.45 149.07 46.17Q148.20 45.90 147.55 45.40Q146.90 44.90 146.90 44.25Q146.90 43.80 147.25 43.40Q146.85 43.10 146.85 42.55Q146.85 41.15 147.75 40.23Q148.65 39.30 149.92 38.85Q151.20 38.40 152.25 38.40L152.95 38.40Q153.10 38.40 153.25 38.40Q153.40 38.40 153.60 38.50Q154.05 38.60 154.20 38.70Q154.85 39 155.40 39.48Q155.95 39.95 155.95 40.60Q155.95 41.30 155.15 41.92Q154.35 42.55 153.90 42.65Q153.75 42.70 153.50 42.70Q152.95 42.70 152.95 42.20Q152.95 41.45 153.60 41.10L153.70 41.05Q153.70 40.10 153.40 39.90Q153.10 39.80 152.95 39.80Q152.40 39.80 151.50 40Q150.60 40.20 149.92 40.65Q149.25 41.10 149.25 41.90Q149.25 42.30 149.28 42.95Q149.30 43.60 149.55 44.08Q149.80 44.55 150.40 44.55Q150.85 44.55 151.28 44.70Q151.70 44.85 152.10 44.95L152.85 44.90Q153.15 44.75 153.63 44.50Q154.10 44.25 154.95 44.25L155.25 44.25Q155.30 44.15 155.40 44.05Q155.70 43.30 156.40 42.92Q157.10 42.55 157.70 42.20Q157.90 41.75 157.90 40.35Q157.90 39.50 157.22 38.75Q156.55 38 155.60 37.35Q154.30 36.80 152.95 36.23Q151.60 35.65 150.67 34.65Q149.75 33.65 149.75 31.85Q149.75 30.95 150.42 30.17Q151.10 29.40 152.05 28.82Q153 28.25 153.92 27.95Q154.85 27.65 155.35 27.65Q156.35 27.65 157.47 27.88Q158.60 28.10 159.38 28.75Q160.15 29.40 160.15 30.75Q160.15 32 159.22 32.58Q158.30 33.15 157.35 33.25Q157.20 33.30 157.05 33.33Q156.90 33.35 156.75 33.35Q156.25 33.35 155.88 33.08Q155.50 32.80 155.25 32.40L155.15 32.25Q154.90 31.95 154.90 31.55Q154.90 31.05 155.50 31.05Q155.75 31.05 156 31.17Q156.25 31.30 156.45 31.60L156.55 31.75Q156.55 31.75 156.55 31.77Q156.55 31.80 156.60 31.80L156.65 31.85Q156.85 31.85 156.95 31.80Q157.35 31.65 157.72 31.15Q158.10 30.65 158.10 30.25Q158.10 30 157.60 29.60Q157.10 29.20 156.50 29.20Q156.05 29.20 155.10 29.48Q154.15 29.75 153.95 30.30Q153.80 30.70 153.67 31Q153.55 31.30 153.40 31.55Q153.40 31.60 153.38 31.70Q153.35 31.80 153.35 31.90Q153.35 32.35 153.53 32.83Q153.70 33.30 153.90 34Q153.95 34.20 153.95 34.33Q153.95 34.45 153.95 34.55Q154.45 34.90 155 35.27Q155.55 35.65 156.05 35.95Q157.65 36.60 158.90 37.58Q160.15 38.55 160.15 40.60Q160.15 41.65 159.75 42.20Q159.35 42.75 158.80 43.15Q158.50 43.55 157.97 43.90Q157.45 44.25 156.60 44.80Q156.45 45.05 156.35 45.23Q156.25 45.40 156.15 45.50Q155.95 45.85 155.67 46.10Q155.40 46.35 154.70 46.35L153.20 46.35Q153.05 46.40 152.90 46.40Q152.75 46.40 152.60 46.40L152.10 46.40Q151.75 46.40 151.35 46.42Q150.95 46.45 150.55 46.45ZM168.30 44.05Q166.60 44.05 165.63 43.33Q164.65 42.60 163.95 41.50Q163.75 41.25 163.85 40.80Q163.35 40.30 162.88 39.65Q162.40 39 162.40 38.25Q162.40 37.95 162.55 37.70Q162.70 37.45 162.90 37.25L162.90 37.20Q162.90 36.80 163.20 36.52Q163.50 36.25 163.80 36.05Q163.55 35.75 163.55 35.35Q163.55 35 163.75 34.70Q163.95 34.40 164.25 34.15L164.40 33.95Q164.35 33.25 164.75 33.08Q165.15 32.90 165.60 32.75Q165.95 32.35 166.40 32.08Q166.85 31.80 167.35 31.50Q168 30.90 168.80 30.55Q169.35 30.25 169.80 29.95Q170.25 29.65 171 29.65Q171.25 29.65 171.47 29.70Q171.70 29.75 171.90 29.85Q172.75 30 173.15 30.52Q173.55 31.05 173.55 31.50Q173.55 32.10 173.05 32.10Q172.55 32.10 171.85 31.55Q171.60 31.80 171.25 31.80L170.05 31.80Q169.85 31.80 169.63 31.85Q169.40 31.90 169.20 32Q168.95 32.20 168.67 32.35Q168.40 32.50 168.15 32.65Q167.80 33 167.42 33.33Q167.05 33.65 166.60 33.90Q165.95 34.90 166 35.48Q166.05 36.05 166 37.30Q166 37.35 166.07 37.77Q166.15 38.20 166.05 38.30Q166.60 38.60 166.77 39.25Q166.95 39.90 167.05 40.60Q167.15 41.30 167.42 41.80Q167.70 42.30 168.45 42.30Q169.90 42.30 171.10 41.77Q172.30 41.25 172.80 40Q172.80 39.80 172.77 39.63Q172.75 39.45 172.75 39.25Q172.75 38.95 172.85 38.67Q172.95 38.40 173.30 38.20L173.50 38.10Q173.95 37.35 173.95 36.35Q173.95 35.55 173.63 34.90Q173.30 34.25 172.60 34.05Q171.55 34.05 170.90 34.25Q170.70 34.35 170.47 34.48Q170.25 34.60 170.10 34.75Q169.70 35.05 169.57 35.50Q169.45 35.95 169.45 36.45Q169.45 36.80 169.47 37.15Q169.50 37.50 169.55 37.75Q169.65 38.05 169.88 38.33Q170.10 38.60 170.35 38.95Q170.65 39.30 170.65 39.60Q170.65 40.10 169.90 40.10Q169.30 40.10 168.63 39.52Q167.95 38.95 168 37.70Q167.95 37.50 167.92 37.30Q167.90 37.10 167.90 36.85L167.85 36.85Q167.85 35.55 168.42 34.48Q169 33.40 170.15 33Q171.75 32.25 173.80 32.25Q175.20 32.25 175.90 33.13Q176.60 34 176.85 35.23Q177.10 36.45 177.10 37.50Q177.10 37.40 176.95 37.90Q176.80 38.40 176.52 39.15Q176.25 39.90 175.92 40.50Q175.60 41.10 175.25 41.15Q174.75 41.15 174.45 41.50Q174.15 42.20 173.30 42.20L173.20 42.35Q173.15 42.40 173.07 42.42Q173 42.45 172.90 42.50L172.75 42.70Q172.10 43.60 170.72 43.83Q169.35 44.05 168.30 44.05ZM179.45 46.85Q179.10 46.85 178.92 46.63Q178.75 46.40 178.75 46.15Q178.75 45.65 179.25 45.45L180.10 45.15Q180.50 45 180.90 44.80Q181.30 44.60 181.65 44.40Q182.55 43.50 182.67 42.33Q182.80 41.15 182.77 40.10Q182.75 39.05 183.20 38.45Q182.50 37.90 182.50 37.40Q182.50 37 182.80 36.80Q182.85 36.40 182.97 35.92Q183.10 35.45 183.15 35.10L181.45 35.10Q181.25 35.15 181.10 35.23Q180.95 35.30 180.75 35.35Q180.70 35.35 180.65 35.38Q180.60 35.40 180.50 35.40Q180.20 35.40 180.02 35.15Q179.85 34.90 179.85 34.65Q179.85 34.25 180.15 34.05Q180.35 33.75 180.70 33.70Q180.95 33.65 181.15 33.60Q181.35 33.55 181.55 33.50Q182.70 32.95 183.57 32.15Q184.45 31.35 185.35 30.63Q186.25 29.90 187.40 29.50Q187.55 29.45 187.75 29.45Q188.45 29.45 188.45 30.05Q188.45 30.30 188.20 30.65Q187.90 31 187.37 31.65Q186.85 32.30 186.42 33.05Q186.00 33.80 186.00 34.45Q186.00 34.55 186.02 34.65Q186.05 34.75 186.10 34.85Q186.45 35.65 186.45 36.25Q186.75 35.50 187.00 35.20Q187.25 34.90 187.60 34.70Q187.95 34.50 188.45 34.10L188.45 34Q188.45 33.45 189.05 33.30L189.25 33.25Q189.65 32.70 190.07 32.27Q190.50 31.85 191.30 31.55L191.30 31.45Q191.50 30.75 192.40 30.75Q194.70 30.75 195.45 32.02Q196.20 33.30 196.20 35.15Q196.20 36.70 195.90 38.45Q195.60 40.20 195.60 41.60Q195.60 42.30 195.75 42.85Q195.80 42.95 196.27 43.33Q196.75 43.70 197.25 43.95L197.50 44L197.80 44.05L197.95 44.10Q197.95 44.20 198.30 44.55Q198.65 44.90 198.65 45.15Q198.65 45.55 197.75 45.55Q197.55 45.55 197.35 45.48Q197.15 45.40 196.90 45.35Q196.40 45.25 195.95 45.15Q195.50 45.05 195.00 45L194.60 44.95Q194.55 44.95 194.50 44.92Q194.45 44.90 194.45 44.90Q193.85 44.90 192.82 44.98Q191.80 45.05 191.00 45.30Q190.75 45.40 190.55 45.52Q190.35 45.65 190.15 45.75Q190.00 45.85 189.70 45.85Q189.00 45.85 189.00 45.20Q189.00 44.85 189.35 44.55Q189.80 44.20 190.50 43.95Q191.15 43.65 191.80 43.25Q192.45 42.85 192.50 42.55Q192.45 42.45 192.37 42.35Q192.30 42.25 192.20 42.20Q191.75 41.65 191.75 41.15Q191.75 40.65 192.02 40.40Q192.30 40.15 192.45 40.05Q192.15 39.80 192.15 39.40Q192.15 38.85 192.47 38.17Q192.80 37.50 192.80 37.05Q192.80 36.30 192.50 35.80Q192.20 35.30 191.87 34.85Q191.55 34.40 191.45 33.75Q191.10 33.95 190.72 34.17Q190.35 34.40 189.95 34.60Q189.70 34.85 189.42 35.10Q189.15 35.35 188.80 35.60Q188.60 35.75 188.40 35.90Q188.20 36.05 187.95 36.30Q187.70 36.95 187.57 37.20Q187.45 37.45 186.80 38Q186.25 38.50 186.05 38.85L186.05 39Q186.05 39.15 186.07 39.33Q186.10 39.50 186.10 39.65Q186.10 40.50 185.92 41.35Q185.75 42.20 185.65 43.05Q186.25 43.15 186.55 43.73Q186.85 44.30 187.25 44.60Q187.55 44.75 187.80 45Q188.05 45.20 188.05 45.55Q188.05 45.85 187.82 46.08Q187.60 46.30 187.35 46.30Q187.10 46.30 186.90 46.10Q186.60 45.90 186.40 45.85Q185.90 46.05 185.32 45.67Q184.75 45.30 183.90 45.30Q183.55 45.30 183.17 45.40Q182.80 45.50 182.45 45.65Q182.20 45.85 181.85 46.02Q181.50 46.20 181.10 46.35L180.65 46.50Q180.45 46.55 180.20 46.65Q179.95 46.75 179.70 46.80Q179.65 46.80 179.60 46.83Q179.55 46.85 179.45 46.85ZM199.90 60.55Q199.40 60.55 199.10 60.30Q198.80 60.05 198.65 59.70Q198.30 59.55 198.02 59.38Q197.75 59.20 197.55 58.95Q196.95 58.55 196.40 57.92Q195.85 57.30 195.85 56.80Q195.85 56.65 195.90 56.50Q195.95 56.35 196.00 56.25Q195.30 56 195.30 55.30Q195.30 54.70 195.70 54.20L195.85 54Q196.00 53.75 196.00 53.75Q196.00 53.70 195.97 53.67Q195.95 53.65 195.95 53.60Q195.60 53.35 195.35 53.08Q195.10 52.80 195.10 52.30Q195.10 52.10 195.25 51.55Q195.40 51 195.57 50.48Q195.75 49.95 195.85 49.85Q196.50 49 197.87 48.13Q199.25 47.25 200.55 47Q201.30 46.55 202.40 46.55Q203.95 46.55 205.22 47.42Q206.50 48.30 207.10 49.65Q207.30 50.10 207.35 50.45Q207.40 50.70 207.45 51Q207.50 51.30 207.50 51.55Q207.50 51.95 207.25 52.10Q206.95 53.45 206.02 54.65Q205.10 55.85 203.25 55.85Q202.50 55.85 201.57 55.52Q200.65 55.20 199.97 54.52Q199.30 53.85 199.30 52.80Q199.30 51.65 199.65 51.20Q200.00 50.75 200.65 50.30Q200.90 50.15 201.10 50.15Q201.55 50.15 201.80 50.65Q202.05 51.15 202.05 51.70Q202.05 51.95 201.95 52.25L201.85 52.50L201.85 52.60Q201.85 52.80 201.92 53.30Q202.00 53.80 202.00 54L202.75 54Q203.65 54 204.27 53.27Q204.90 52.55 204.90 51.90Q204.90 51.60 204.75 51.40Q204.60 51.10 204.60 50.90Q204.60 50.65 204.67 50.38Q204.75 50.10 204.75 49.85L204.75 49.75Q204.40 49.35 204.70 48.95Q204.00 48.35 203.60 48.35Q203.35 48.40 203.07 48.48Q202.80 48.55 202.55 48.55Q202.35 48.55 202.15 48.45Q201.95 48.35 201.75 48.25Q201.60 48.25 201.45 48.25Q201.30 48.25 201.15 48.30Q200.35 48.75 199.92 49.45Q199.50 50.15 198.50 50.30Q198.40 50.30 198.37 50.27Q198.35 50.25 198.30 50.25Q198.05 50.80 197.80 51.60Q197.90 51.80 197.95 51.85L198.10 52.10Q198.20 52.30 198.30 52.52Q198.40 52.75 198.40 53Q198.40 53.55 198.00 53.80L197.80 53.95Q197.95 54.50 198.32 54.73Q198.70 54.95 198.70 55.95Q198.70 56.35 198.55 57.10Q198.45 57.85 198.55 57.95Q199.00 57.95 199.22 58.10Q199.45 58.25 199.60 58.50Q200.65 58.80 201.40 58.80Q202.75 58.80 204.40 58.65Q206.05 58.50 207.20 57.65Q207.45 57.15 207.85 57Q208.35 56.35 208.80 55.40Q209.25 54.45 209.75 53.80L209.60 53.65Q209.35 53.25 209.35 52.55Q209.35 51.70 209.65 50.75Q209.95 49.80 210.20 49.20L210.30 49.05L210.25 49.05Q210.10 49.05 209.92 48.88Q209.75 48.70 209.50 48.05L209.40 48.05Q208.70 48.05 208.52 47.83Q208.35 47.60 208.27 47.27Q208.20 46.95 207.95 46.65Q207.70 46.35 206.85 46.20Q206.50 46.10 206.12 46.05Q205.75 46 205.25 45.85Q205.10 45.80 205.00 45.70Q204.90 45.60 204.80 45.55Q203.85 45.30 203.12 44.77Q202.40 44.25 202.40 43.35Q202.40 42.90 202.62 42.52Q202.85 42.15 203.15 41.90Q201.85 41.25 201.42 39.85Q201.00 38.45 201.00 36.15Q201.00 32.10 204.35 31.30Q204.65 30.95 205.22 30.75Q205.80 30.55 206.90 30.55Q208.25 30.55 209.65 31L209.80 31.05Q209.35 30.20 209.02 29.38Q208.70 28.55 208.55 28Q208.20 27.75 208.00 27.45Q207.80 27.15 207.80 26.70Q207.80 26.20 208.30 25.85L208.25 25.70Q208.10 25.30 208.10 25Q208.10 23.90 209.45 23.75L209.45 23.70Q209.45 22.95 209.95 22.55Q210.45 22.15 211.10 21.88Q211.75 21.60 212.15 21.15Q212.35 20.95 212.65 20.95Q213.00 20.95 213.40 21.13Q213.80 21.30 214.15 21.40Q215.95 21.90 216.10 23.25Q216.40 23.60 216.60 24.02Q216.80 24.45 216.80 24.95Q216.80 25.55 216.50 26.15Q216.40 26.80 216.00 27.25Q215.60 27.70 214.85 27.70L214.75 27.70Q214.70 27.70 214.65 27.72Q214.60 27.75 214.55 27.75Q213.90 27.75 213.50 27.32Q213.10 26.90 213.10 26.55Q213.10 26.30 213.32 26.13Q213.55 25.95 214.05 26.05L214.50 26.15L214.70 26.25Q214.85 26.15 214.95 26.02Q215.05 25.90 215.10 25.75L215.05 25.70Q214.60 25.25 214.57 24.82Q214.55 24.40 214.60 23.90Q214.40 23.80 214.15 23.70Q213.90 23.60 213.65 23.60Q212.30 23.60 211.37 24.38Q210.45 25.15 210.45 26.60Q210.45 28.30 210.60 28.92Q210.75 29.55 211.00 29.67Q211.25 29.80 211.62 30.02Q212.00 30.25 212.45 31.10Q212.70 31.60 212.82 32.15Q212.95 32.70 213.15 33.20Q213.80 33.90 214.20 34.80Q214.60 35.70 214.60 36.80Q214.60 37.75 214.20 38.55Q213.75 39.90 212.57 40.80Q211.40 41.70 210.10 41.90Q208.40 42.50 206.90 42.50L206.10 42.50Q205.90 42.50 205.35 42.60Q204.80 42.70 204.32 42.88Q203.85 43.05 203.85 43.35Q204.10 44 205.10 44.17Q206.10 44.35 207.40 44.48Q208.70 44.60 209.85 45.08Q211.00 45.55 211.60 46.75Q211.75 46.95 211.75 46.95Q212.75 47 212.97 47.48Q213.20 47.95 213.20 48.80L213.20 49.10Q213.65 49.35 214.02 49.67Q214.40 50 214.40 50.60Q214.40 51.05 214.15 51.33Q213.90 51.60 213.55 51.80L213.55 51.85Q213.85 52.50 213.85 53Q213.85 53.55 213.47 53.92Q213.10 54.30 212.25 54.70L212.20 54.70L212.20 54.95Q212.20 55.80 211.95 56.10Q211.70 56.40 211.30 56.50Q210.90 56.60 210.35 56.85L210.35 57Q210.35 58.50 209.15 58.50Q209.00 58.50 208.85 58.50Q208.70 58.50 208.55 58.45Q208.20 59.85 206.20 60.20Q204.20 60.55 199.90 60.55M207.60 40.90Q207.95 40.90 208.30 40.83Q208.65 40.75 208.95 40.70Q209.10 40.45 209.35 40.30Q209.55 40.15 209.75 40.10Q209.80 39.25 209.92 38.75Q210.05 38.25 211.20 38.25L211.20 38.20Q211.20 37.95 211.20 37.77Q211.20 37.60 211.15 37.40Q211.10 37.20 211.02 36.95Q210.95 36.70 211.00 36.35Q210.95 36.20 210.95 35.80Q210.95 35.30 211.15 34.85Q211.10 34.45 210.70 34.40Q210.30 34.35 209.85 33.85Q209.55 33.45 209.37 33.17Q209.20 32.90 208.95 32.70Q207.55 32.45 206.60 32.55Q206.20 32.85 205.90 33.17Q205.60 33.50 205.20 33.90Q205.00 34.45 204.30 34.85Q204.10 35 203.87 35.55Q203.65 36.10 203.50 36.67Q203.35 37.25 203.35 37.50Q203.35 39.15 204.55 40.02Q205.75 40.90 207.60 40.90Z"/>
</g></g></svg>